<svg width="21" height="21" viewBox="0 0 21 21" fill="none" xmlns="http://www.w3.org/2000/svg">
<g clip-path="url(#clip0_452_461)">
<path d="M5.25 14.625C5.25 15.5875 6.0375 16.375 7 16.375H14C14.9625 16.375 15.75 15.5875 15.75 14.625V5.875C15.75 4.9125 14.9625 4.125 14 4.125H7C6.0375 4.125 5.25 4.9125 5.25 5.875V14.625ZM15.75 1.5H13.5625L12.9412 0.87875C12.7837 0.72125 12.5563 0.625 12.3288 0.625H8.67125C8.44375 0.625 8.21625 0.72125 8.05875 0.87875L7.4375 1.5H5.25C4.76875 1.5 4.375 1.89375 4.375 2.375C4.375 2.85625 4.76875 3.25 5.25 3.25H15.75C16.2312 3.25 16.625 2.85625 16.625 2.375C16.625 1.89375 16.2312 1.5 15.75 1.5Z" fill="#D61F1F"/>
</g>
<defs>
<clipPath id="clip0_452_461">
<rect width="21" height="21" fill="white"/>
</clipPath>
</defs>
</svg>
