<svg width="24" height="24" viewBox="0 0 24 24" fill="none" xmlns="http://www.w3.org/2000/svg">
<path fill-rule="evenodd" clip-rule="evenodd" d="M2.33797 5.625C2.40628 5.74304 2.49684 5.89347 2.60902 6.06717C2.89716 6.51332 3.32387 7.10662 3.87786 7.69754C4.99723 8.89152 6.56223 10 8.50006 10C10.4379 10 12.0029 8.89152 13.1223 7.69754C13.6762 7.10662 14.1029 6.51332 14.3911 6.06717C14.5033 5.89347 14.5938 5.74304 14.6621 5.625C14.5938 5.50696 14.5033 5.35653 14.3911 5.18283C14.1029 4.73668 13.6762 4.14338 13.1223 3.55246C12.0029 2.35847 10.4379 1.25 8.50006 1.25C6.56223 1.25 4.99723 2.35847 3.87786 3.55246C3.32387 4.14338 2.89716 4.73668 2.60902 5.18283C2.49684 5.35653 2.40628 5.50696 2.33797 5.625ZM15.3751 5.625C15.9341 5.34549 15.9339 5.34505 15.9339 5.34505L15.9329 5.34304L15.9307 5.33877L15.9236 5.32489C15.9177 5.3133 15.9093 5.29707 15.8984 5.27652C15.8766 5.23544 15.8451 5.17702 15.8039 5.10374C15.7215 4.95728 15.6002 4.75095 15.4411 4.50467C15.1238 4.01332 14.6521 3.35662 14.0342 2.69754C12.8098 1.39153 10.9373 0 8.50006 0C6.06284 0 4.19032 1.39153 2.96593 2.69754C2.34803 3.35662 1.8763 4.01332 1.55896 4.50467C1.39991 4.75095 1.27862 4.95728 1.19623 5.10374C1.15502 5.17702 1.12346 5.23544 1.10172 5.27652C1.09085 5.29707 1.08242 5.3133 1.07646 5.32489L1.06937 5.33877L1.06721 5.34304L1.06648 5.3445C1.06648 5.3445 1.06598 5.34549 1.625 5.625L1.06598 5.34549C0.978006 5.52145 0.978006 5.72855 1.06598 5.90451L1.625 5.625C1.06598 5.90451 1.06598 5.90451 1.06598 5.90451L1.06721 5.90696L1.06937 5.91123L1.07646 5.92511C1.08242 5.9367 1.09085 5.95293 1.10172 5.97348C1.12346 6.01456 1.15502 6.07298 1.19623 6.14626C1.27862 6.29272 1.39991 6.49905 1.55896 6.74533C1.8763 7.23668 2.34803 7.89338 2.96593 8.55246C4.19032 9.85848 6.06284 11.25 8.50006 11.25C10.9373 11.25 12.8098 9.85848 14.0342 8.55246C14.6521 7.89338 15.1238 7.23668 15.4411 6.74533C15.6002 6.49905 15.7215 6.29272 15.8039 6.14626C15.8451 6.07298 15.8766 6.01456 15.8984 5.97348C15.9093 5.95293 15.9177 5.9367 15.9236 5.92511L15.9307 5.91123L15.9329 5.90696L15.9336 5.9055C15.9336 5.9055 15.9341 5.90451 15.3751 5.625ZM15.3751 5.625L15.9341 5.90451C16.0221 5.72855 16.0219 5.52101 15.9339 5.34505L15.3751 5.625Z" fill="#3E3E3E"/>
<path fill-rule="evenodd" clip-rule="evenodd" d="M8.50006 4.375C7.80969 4.375 7.25005 4.93464 7.25005 5.625C7.25005 6.31536 7.80969 6.875 8.50006 6.875C9.19042 6.875 9.75006 6.31536 9.75006 5.625C9.75006 4.93464 9.19042 4.375 8.50006 4.375ZM6.00004 5.625C6.00004 4.24429 7.11933 3.125 8.50006 3.125C9.88078 3.125 11.0001 4.24429 11.0001 5.625C11.0001 7.00571 9.88078 8.125 8.50006 8.125C7.11933 8.125 6.00004 7.00571 6.00004 5.625Z" fill="#3E3E3E"/>
</svg>
