<svg width="90" height="90" viewBox="0 0 90 90" fill="none" xmlns="http://www.w3.org/2000/svg">
<circle cx="45" cy="45" r="45" fill="white"/>
<path d="M45 25.4167C43.0661 25.4167 41.2115 26.1849 39.844 27.5524C38.4766 28.9198 37.7083 30.7745 37.7083 32.7084C37.7083 34.6422 38.4766 36.4969 39.844 37.8643C41.2115 39.2318 43.0661 40 45 40C46.9339 40 48.7885 39.2318 50.156 37.8643C51.5234 36.4969 52.2917 34.6422 52.2917 32.7084C52.2917 30.7745 51.5234 28.9198 50.156 27.5524C48.7885 26.1849 46.9339 25.4167 45 25.4167ZM45 29.5834C45.8288 29.5834 46.6237 29.9126 47.2097 30.4986C47.7958 31.0847 48.125 31.8796 48.125 32.7084C48.125 33.5372 47.7958 34.332 47.2097 34.9181C46.6237 35.5041 45.8288 35.8334 45 35.8334C44.1712 35.8334 43.3763 35.5041 42.7903 34.9181C42.2042 34.332 41.875 33.5372 41.875 32.7084C41.875 31.8796 42.2042 31.0847 42.7903 30.4986C43.3763 29.9126 44.1712 29.5834 45 29.5834ZM31.4583 31.6667C30.077 31.6667 28.7522 32.2154 27.7755 33.1922C26.7987 34.1689 26.25 35.4937 26.25 36.875C26.25 38.8334 27.3542 40.5209 28.9375 41.4167C29.6875 41.8334 30.5417 42.0834 31.4583 42.0834C32.375 42.0834 33.2292 41.8334 33.9792 41.4167C34.75 40.9792 35.3958 40.3542 35.875 39.6042C34.3573 37.6262 33.5368 35.2015 33.5417 32.7084V32.125C32.9167 31.8334 32.2083 31.6667 31.4583 31.6667ZM58.5417 31.6667C57.7917 31.6667 57.0833 31.8334 56.4583 32.125V32.7084C56.4583 35.2084 55.6458 37.625 54.125 39.6042C54.375 40 54.6458 40.3125 54.9583 40.625C55.9191 41.5565 57.2035 42.0792 58.5417 42.0834C59.4583 42.0834 60.3125 41.8334 61.0625 41.4167C62.6458 40.5209 63.75 38.8334 63.75 36.875C63.75 35.4937 63.2013 34.1689 62.2245 33.1922C61.2478 32.2154 59.923 31.6667 58.5417 31.6667ZM45 44.1667C40.125 44.1667 30.4167 46.6042 30.4167 51.4584V54.5834H59.5833V51.4584C59.5833 46.6042 49.875 44.1667 45 44.1667ZM29.8125 45.3125C25.7917 45.7917 20 47.8334 20 51.4584V54.5834H26.25V50.5625C26.25 48.4584 27.6875 46.7084 29.8125 45.3125ZM60.1875 45.3125C62.3125 46.7084 63.75 48.4584 63.75 50.5625V54.5834H70V51.4584C70 47.8334 64.2083 45.7917 60.1875 45.3125ZM45 48.3334C48.1875 48.3334 51.75 49.375 53.8125 50.4167H36.1875C38.25 49.375 41.8125 48.3334 45 48.3334Z" fill="#012245"/>
</svg>
