<svg width="90" height="90" viewBox="0 0 90 90" fill="none" xmlns="http://www.w3.org/2000/svg">
<circle cx="45" cy="45" r="45" fill="white"/>
<g clip-path="url(#clip0_219_6)">
<path d="M46.3374 27.9375C47.1749 27.4167 48.1999 27.325 49.104 27.6688L49.3999 27.8L64.9082 35.6354C65.5636 35.9689 66.0814 36.5213 66.3718 37.1969C66.6622 37.8724 66.7068 38.6284 66.4978 39.3333C65.6853 42.1063 65.7749 43.2708 66.3061 44.5854C66.8061 45.825 66.5145 47.3813 65.3478 48.2958L65.0832 48.4833L43.6582 62.0438C42.7603 62.6125 41.6165 62.7 40.6228 62.2146L32.6228 58.2667L29.2811 56.5896L26.9061 55.3771L25.4561 54.6167L24.7061 54.2083L24.1624 53.8958C22.0374 52.6146 21.3749 50.0104 21.3874 48.0208C21.3957 45.9979 22.0915 43.4708 24.0228 42.0833L24.6478 41.6521L26.4353 40.4833L30.6957 37.7625L46.3374 27.9396V27.9375ZM61.7353 42.2667L43.6665 53.7042C43.5207 53.7979 43.3665 53.8771 43.2103 53.9438C42.9811 54.7938 42.902 55.4042 42.9103 55.9708C42.9145 56.3104 42.952 56.6542 43.0249 57.0479L43.1124 57.4583L62.1707 45.3958C61.8984 44.5574 61.751 43.6835 61.7332 42.8021L61.7353 42.2667ZM25.8332 46.4125C25.6451 46.9335 25.5506 47.4836 25.554 48.0375C25.5478 49.4375 26.0478 50.1688 26.3145 50.3292L26.9561 50.6938L28.2603 51.3875L31.9478 53.2688L38.7707 56.6667C38.754 56.4566 38.7443 56.2461 38.7415 56.0354C38.736 55.0508 38.8622 54.0699 39.1165 53.1188L25.8332 46.4104V46.4125ZM60.5353 38.0958L48.0457 31.7833L33.9624 40.625L29.3832 43.5396L41.9374 49.8729L60.5353 38.0979V38.0958ZM46.279 35.2833C46.5159 34.8308 46.9107 34.4811 47.3885 34.3005C47.8663 34.12 48.3938 34.1213 48.8707 34.3042L49.0915 34.4042L53.4665 36.6958C53.9395 36.9414 54.3003 37.3587 54.475 37.8622C54.6496 38.3656 54.6247 38.9168 54.4053 39.4024C54.186 39.888 53.7889 40.2711 53.2958 40.473C52.8026 40.6748 52.2509 40.68 51.754 40.4875L51.5332 40.3875L47.1582 38.0958C46.9158 37.9689 46.7007 37.7955 46.5253 37.5855C46.35 37.3754 46.2177 37.1329 46.136 36.8717C46.0544 36.6105 46.025 36.3358 46.0495 36.0633C46.0741 35.7908 46.1521 35.5257 46.279 35.2833Z" fill="#012245"/>
</g>
<defs>
<clipPath id="clip0_219_6">
<rect width="50" height="50" fill="white" transform="translate(20 20)"/>
</clipPath>
</defs>
</svg>
